{"title":"Jenna Jameson Feature Collection 1993-2005 DVDrip","uid":13235490,"size":64860028343,"categoryP":"porn","categoryS":"other","magnet":"?xt=urn:btih:a1339420d50294032483b8409a417e51f7f5bf60&amp;dn=Jenna+Jameson+Feature+Collection+1993-2005+DVDrip&amp;tr=udp%3A%2F%2Ftracker.leechers-paradise.org%3A6969&amp;tr=udp%3A%2F%2Fzer0day.ch%3A1337&amp;tr=udp%3A%2F%2Fopen.demonii.com%3A1337&amp;tr=udp%3A%2F%2Ftracker.coppersurfer.tk%3A6969&amp;tr=udp%3A%2F%2Fexodus.desync.com%3A6969","seeders":1,"leechers":5,"uploader":"roflcopter2110","files":318,"time":1452999784,"description":"http://lookpic.com/O/i2/1160/X4Cd7LhU.jpeg\r\n\r\nFormat : AVI\r\nFormat/Info : Audio Video Interleave\r\nFile size : 701 MiB\r\nDuration : 1h 5mn\r\nOverall bit rate mode : Variable\r\nOverall bit rate : 1 487 Kbps\r\nWriting application : VirtualDubMod 1.5.10.2 (build 2540/release)\r\nWriting library : VirtualDubMod build 2540/release\r\n\r\nVideo\r\nID : 0\r\nFormat : MPEG-4 Visual\r\nFormat profile : Advanced   \r\nFormat settings, BVOP : 2\r\nFormat settings, QPel : No\r\nFormat settings, GMC : No warppoints\r\nFormat settings, Matrix : Default (H.263)\r\nCodec ID : XVID\r\nCodec ID/Hint : XviD\r\nDuration : 1h 5mn\r\nBit rate : 1 311 Kbps\r\nWidth : 576 pixels\r\nHeight : 320 pixels\r\nDisplay aspect ratio : 16:9\r\nFrame rate : 29.970 fps\r\nColor space : YUV\r\nChroma subsampling : 4:2:0\r\nBit depth : 8 bits\r\nScan type : Progressive\r\nCompression mode : Lossy\r\nBits/(Pixel*Frame) : 0.237\r\nStream size : 618 MiB (88%)\r\nWriting library : XviD 1.2.1 (UTC 2008-12-04)\r\n\r\nAudio\r\nID : 1\r\nFormat : MPEG Audio\r\nFormat version : Version 1\r\nFormat profile : Layer 3\r\nMode : Joint stereo\r\nMode extension : MS Stereo\r\nCodec ID : 55\r\nCodec ID/Hint : MP3\r\nDuration : 1h 5mn\r\nBit rate mode : Variable\r\nBit rate : 162 Kbps\r\nMinimum bit rate : 32.0 Kbps\r\nChannel(s) : 2 channels\r\nSampling rate : 48.0 KHz\r\nCompression mode : Lossy\r\nStream size : 76.5 MiB (11%)\r\nAlignment : Aligned on interleaves\r\nInterleave, duration : 24 ms (0.72 video frame)\r\nInterleave, preload duration : 319 ms\r\nWriting library : LAME3.97\r\n \nhttp://lookpic.com/O/i2/661/lueHj1MM.jpeg \nhttp://lookpic.com/O/i2/1398/WwtaP3or.jpeg","torrent":{"xt":"urn:btih:a1339420d50294032483b8409a417e51f7f5bf60","amp;dn":"Jenna+Jameson+Feature+Collection+1993-2005+DVDrip","amp;tr":["udp%3A%2F%2Ftracker.leechers-paradise.org%3A6969","udp%3A%2F%2Fzer0day.ch%3A1337","udp%3A%2F%2Fopen.demonii.com%3A1337","udp%3A%2F%2Ftracker.coppersurfer.tk%3A6969","udp%3A%2F%2Fexodus.desync.com%3A6969"],"infoHash":"a1339420d50294032483b8409a417e51f7f5bf60","infoHashBuffer":{"type":"Buffer","data":[161,51,148,32,213,2,148,3,36,131,184,64,154,65,126,81,247,245,191,96]},"announce":[],"urlList":[]}}